<svg width="1538" height="283" xmlns="http://www.w3.org/2000/svg" xmlns:xlink="http://www.w3.org/1999/xlink" xml:space="preserve" overflow="hidden"><g transform="translate(-752 -1341)"><rect x="754.5" y="1346.5" width="104" height="104" stroke="#223F59" stroke-width="4.58333" stroke-miterlimit="8" fill="#FFFF00"/><text font-family="SimSun,SimSun_MSFontService,sans-serif" font-weight="400" font-size="55" transform="matrix(1 0 0 1 951.542 1422)">山</text><rect x="1351.5" y="1345.5" width="104" height="104" stroke="#223F59" stroke-width="4.58333" stroke-miterlimit="8" fill="#0000FF"/><text font-family="SimSun,SimSun_MSFontService,sans-serif" font-weight="400" font-size="55" transform="matrix(1 0 0 1 1548.33 1421)">水体</text><rect x="1948.5" y="1343.5" width="104" height="104" stroke="#223F59" stroke-width="4.58333" stroke-miterlimit="8" fill="#00FF00"/><text font-family="SimSun,SimSun_MSFontService,sans-serif" font-weight="400" font-size="55" transform="matrix(1 0 0 1 2145.12 1420)">裸土</text><rect x="754.5" y="1506.5" width="104" height="104" stroke="#223F59" stroke-width="4.58333" stroke-miterlimit="8" fill="#00FFFF"/><text font-family="SimSun,SimSun_MSFontService,sans-serif" font-weight="400" font-size="55" transform="matrix(1 0 0 1 951.542 1582)">城市</text><rect x="1351.5" y="1504.5" width="104" height="104" stroke="#223F59" stroke-width="4.58333" stroke-miterlimit="8" fill="#FF0000"/><text font-family="SimSun,SimSun_MSFontService,sans-serif" font-weight="400" font-size="55" transform="matrix(1 0 0 1 1548.33 1580)">植被</text><rect x="1948.5" y="1503.5" width="104" height="104" stroke="#223F59" stroke-width="4.58333" stroke-miterlimit="8"/><text font-family="SimSun,SimSun_MSFontService,sans-serif" font-weight="400" font-size="55" transform="matrix(1 0 0 1 2145.12 1579)">其他</text></g></svg>